<?xml version="1.0" encoding="UTF-8" standalone="no"?><svg xmlns="http://www.w3.org/2000/svg" xmlns:xlink="http://www.w3.org/1999/xlink" contentScriptType="application/ecmascript" contentStyleType="text/css" height="819px" preserveAspectRatio="none" style="width:3160px;height:819px;" version="1.1" viewBox="0 0 3160 819" width="3160.5px" zoomAndPan="magnify"><defs><filter height="300%" id="fwx3eeanx46ts" width="300%" x="-1" y="-1"><feGaussianBlur result="blurOut" stdDeviation="3.0"/><feColorMatrix in="blurOut" result="blurOut2" type="matrix" values="0 0 0 0 0 0 0 0 0 0 0 0 0 0 0 0 0 0 .4 0"/><feOffset dx="6.0" dy="6.0" in="blurOut2" result="blurOut3"/><feBlend in="SourceGraphic" in2="blurOut3" mode="normal"/></filter></defs><g><!--class Allegro5Exception--><rect fill="#FEFECE" filter="url(#fwx3eeanx46ts)" height="72" id="Allegro5Exception" style="stroke: #A80036; stroke-width: 2.25;" width="195" x="9" y="12"/><ellipse cx="31.5" cy="36" fill="#ADD1B2" rx="16.5" ry="16.5" style="stroke: #A80036; stroke-width: 1.5;"/><path d="M38.0625,42.1406 Q37.3125,43.4531 35.9531,44.4844 Q33.7031,46.1016 30.9375,46.1016 Q27.4453,46.1016 25.0781,43.7578 Q22.3828,41.0391 22.3828,36.0469 Q22.3828,31.4297 25.0547,28.5938 Q27.5391,25.9922 31.0781,25.9922 Q32.4609,25.9922 34.0078,26.4609 Q35.3906,27.0703 35.3906,26.8828 Q35.6484,26.8828 35.8594,26.0625 L37.4063,25.9453 L37.6406,32.9766 L36.1875,33.1172 Q34.9688,27.8203 31.2891,27.8203 Q30.2109,27.8203 29.0859,28.2188 Q27.8438,28.6875 27.1406,29.4141 Q25.2188,31.5703 25.1953,36.0938 Q25.1719,40.0547 27.3281,42.2578 Q29.1094,44.0859 31.6406,44.0859 Q34.4531,44.0859 37.1953,40.875 L38.0625,42.1406 Z "/><text fill="#000000" font-family="sans-serif" font-size="18" lengthAdjust="spacingAndGlyphs" textLength="147" x="52.5" y="44.8638">Allegro5Exception</text><line style="stroke: #A80036; stroke-width: 2.25;" x1="10.5" x2="202.5" y1="60" y2="60"/><line style="stroke: #A80036; stroke-width: 2.25;" x1="10.5" x2="202.5" y1="72" y2="72"/><!--class Resources--><rect fill="#FEFECE" filter="url(#fwx3eeanx46ts)" height="72" id="Resources" style="stroke: #A80036; stroke-width: 2.25;" width="139.5" x="257.25" y="12"/><ellipse cx="279.75" cy="36" fill="#ADD1B2" rx="16.5" ry="16.5" style="stroke: #A80036; stroke-width: 1.5;"/><path d="M286.3125,42.1406 Q285.5625,43.4531 284.2031,44.4844 Q281.9531,46.1016 279.1875,46.1016 Q275.6953,46.1016 273.3281,43.7578 Q270.6328,41.0391 270.6328,36.0469 Q270.6328,31.4297 273.3047,28.5938 Q275.7891,25.9922 279.3281,25.9922 Q280.7109,25.9922 282.2578,26.4609 Q283.6406,27.0703 283.6406,26.8828 Q283.8984,26.8828 284.1094,26.0625 L285.6563,25.9453 L285.8906,32.9766 L284.4375,33.1172 Q283.2188,27.8203 279.5391,27.8203 Q278.4609,27.8203 277.3359,28.2188 Q276.0938,28.6875 275.3906,29.4141 Q273.4688,31.5703 273.4453,36.0938 Q273.4219,40.0547 275.5781,42.2578 Q277.3594,44.0859 279.8906,44.0859 Q282.7031,44.0859 285.4453,40.875 L286.3125,42.1406 Z "/><text fill="#000000" font-family="sans-serif" font-size="18" lengthAdjust="spacingAndGlyphs" textLength="91.5" x="300.75" y="44.8638">Resources</text><line style="stroke: #A80036; stroke-width: 2.25;" x1="258.75" x2="395.25" y1="60" y2="60"/><line style="stroke: #A80036; stroke-width: 2.25;" x1="258.75" x2="395.25" y1="72" y2="72"/><!--class GameEngine--><rect fill="#FEFECE" filter="url(#fwx3eeanx46ts)" height="72" id="GameEngine" style="stroke: #A80036; stroke-width: 2.25;" width="157.5" x="449.25" y="12"/><ellipse cx="471.75" cy="36" fill="#ADD1B2" rx="16.5" ry="16.5" style="stroke: #A80036; stroke-width: 1.5;"/><path d="M478.3125,42.1406 Q477.5625,43.4531 476.2031,44.4844 Q473.9531,46.1016 471.1875,46.1016 Q467.6953,46.1016 465.3281,43.7578 Q462.6328,41.0391 462.6328,36.0469 Q462.6328,31.4297 465.3047,28.5938 Q467.7891,25.9922 471.3281,25.9922 Q472.7109,25.9922 474.2578,26.4609 Q475.6406,27.0703 475.6406,26.8828 Q475.8984,26.8828 476.1094,26.0625 L477.6563,25.9453 L477.8906,32.9766 L476.4375,33.1172 Q475.2188,27.8203 471.5391,27.8203 Q470.4609,27.8203 469.3359,28.2188 Q468.0938,28.6875 467.3906,29.4141 Q465.4688,31.5703 465.4453,36.0938 Q465.4219,40.0547 467.5781,42.2578 Q469.3594,44.0859 471.8906,44.0859 Q474.7031,44.0859 477.4453,40.875 L478.3125,42.1406 Z "/><text fill="#000000" font-family="sans-serif" font-size="18" lengthAdjust="spacingAndGlyphs" textLength="109.5" x="492.75" y="44.8638">GameEngine</text><line style="stroke: #A80036; stroke-width: 2.25;" x1="450.75" x2="605.25" y1="60" y2="60"/><line style="stroke: #A80036; stroke-width: 2.25;" x1="450.75" x2="605.25" y1="72" y2="72"/><!--class IScene--><rect fill="#FEFECE" filter="url(#fwx3eeanx46ts)" height="72" id="IScene" style="stroke: #A80036; stroke-width: 2.25;" width="105" x="1278" y="12"/><ellipse cx="1300.5" cy="36" fill="#ADD1B2" rx="16.5" ry="16.5" style="stroke: #A80036; stroke-width: 1.5;"/><path d="M1307.0625,42.1406 Q1306.3125,43.4531 1304.9531,44.4844 Q1302.7031,46.1016 1299.9375,46.1016 Q1296.4453,46.1016 1294.0781,43.7578 Q1291.3828,41.0391 1291.3828,36.0469 Q1291.3828,31.4297 1294.0547,28.5938 Q1296.5391,25.9922 1300.0781,25.9922 Q1301.4609,25.9922 1303.0078,26.4609 Q1304.3906,27.0703 1304.3906,26.8828 Q1304.6484,26.8828 1304.8594,26.0625 L1306.4063,25.9453 L1306.6406,32.9766 L1305.1875,33.1172 Q1303.9688,27.8203 1300.2891,27.8203 Q1299.2109,27.8203 1298.0859,28.2188 Q1296.8438,28.6875 1296.1406,29.4141 Q1294.2188,31.5703 1294.1953,36.0938 Q1294.1719,40.0547 1296.3281,42.2578 Q1298.1094,44.0859 1300.6406,44.0859 Q1303.4531,44.0859 1306.1953,40.875 L1307.0625,42.1406 Z "/><text fill="#000000" font-family="sans-serif" font-size="18" lengthAdjust="spacingAndGlyphs" textLength="57" x="1321.5" y="44.8638">IScene</text><line style="stroke: #A80036; stroke-width: 2.25;" x1="1279.5" x2="1381.5" y1="60" y2="60"/><line style="stroke: #A80036; stroke-width: 2.25;" x1="1279.5" x2="1381.5" y1="72" y2="72"/><!--class MainScene--><rect fill="#FEFECE" filter="url(#fwx3eeanx46ts)" height="72" id="MainScene" style="stroke: #A80036; stroke-width: 2.25;" width="139.5" x="1070.25" y="174"/><ellipse cx="1092.75" cy="198" fill="#ADD1B2" rx="16.5" ry="16.5" style="stroke: #A80036; stroke-width: 1.5;"/><path d="M1099.3125,204.1406 Q1098.5625,205.4531 1097.2031,206.4844 Q1094.9531,208.1016 1092.1875,208.1016 Q1088.6953,208.1016 1086.3281,205.7578 Q1083.6328,203.0391 1083.6328,198.0469 Q1083.6328,193.4297 1086.3047,190.5938 Q1088.7891,187.9922 1092.3281,187.9922 Q1093.7109,187.9922 1095.2578,188.4609 Q1096.6406,189.0703 1096.6406,188.8828 Q1096.8984,188.8828 1097.1094,188.0625 L1098.6563,187.9453 L1098.8906,194.9766 L1097.4375,195.1172 Q1096.2188,189.8203 1092.5391,189.8203 Q1091.4609,189.8203 1090.3359,190.2188 Q1089.0938,190.6875 1088.3906,191.4141 Q1086.4688,193.5703 1086.4453,198.0938 Q1086.4219,202.0547 1088.5781,204.2578 Q1090.3594,206.0859 1092.8906,206.0859 Q1095.7031,206.0859 1098.4453,202.875 L1099.3125,204.1406 Z "/><text fill="#000000" font-family="sans-serif" font-size="18" lengthAdjust="spacingAndGlyphs" textLength="91.5" x="1113.75" y="206.8638">MainScene</text><line style="stroke: #A80036; stroke-width: 2.25;" x1="1071.75" x2="1208.25" y1="222" y2="222"/><line style="stroke: #A80036; stroke-width: 2.25;" x1="1071.75" x2="1208.25" y1="234" y2="234"/><!--class TitleScene--><rect fill="#FEFECE" filter="url(#fwx3eeanx46ts)" height="72" id="TitleScene" style="stroke: #A80036; stroke-width: 2.25;" width="135" x="1263" y="174"/><ellipse cx="1285.5" cy="198" fill="#ADD1B2" rx="16.5" ry="16.5" style="stroke: #A80036; stroke-width: 1.5;"/><path d="M1292.0625,204.1406 Q1291.3125,205.4531 1289.9531,206.4844 Q1287.7031,208.1016 1284.9375,208.1016 Q1281.4453,208.1016 1279.0781,205.7578 Q1276.3828,203.0391 1276.3828,198.0469 Q1276.3828,193.4297 1279.0547,190.5938 Q1281.5391,187.9922 1285.0781,187.9922 Q1286.4609,187.9922 1288.0078,188.4609 Q1289.3906,189.0703 1289.3906,188.8828 Q1289.6484,188.8828 1289.8594,188.0625 L1291.4063,187.9453 L1291.6406,194.9766 L1290.1875,195.1172 Q1288.9688,189.8203 1285.2891,189.8203 Q1284.2109,189.8203 1283.0859,190.2188 Q1281.8438,190.6875 1281.1406,191.4141 Q1279.2188,193.5703 1279.1953,198.0938 Q1279.1719,202.0547 1281.3281,204.2578 Q1283.1094,206.0859 1285.6406,206.0859 Q1288.4531,206.0859 1291.1953,202.875 L1292.0625,204.1406 Z "/><text fill="#000000" font-family="sans-serif" font-size="18" lengthAdjust="spacingAndGlyphs" textLength="87" x="1306.5" y="206.8638">TitleScene</text><line style="stroke: #A80036; stroke-width: 2.25;" x1="1264.5" x2="1396.5" y1="222" y2="222"/><line style="stroke: #A80036; stroke-width: 2.25;" x1="1264.5" x2="1396.5" y1="234" y2="234"/><!--class SettingScene--><rect fill="#FEFECE" filter="url(#fwx3eeanx46ts)" height="72" id="SettingScene" style="stroke: #A80036; stroke-width: 2.25;" width="157.5" x="1451.25" y="174"/><ellipse cx="1473.75" cy="198" fill="#ADD1B2" rx="16.5" ry="16.5" style="stroke: #A80036; stroke-width: 1.5;"/><path d="M1480.3125,204.1406 Q1479.5625,205.4531 1478.2031,206.4844 Q1475.9531,208.1016 1473.1875,208.1016 Q1469.6953,208.1016 1467.3281,205.7578 Q1464.6328,203.0391 1464.6328,198.0469 Q1464.6328,193.4297 1467.3047,190.5938 Q1469.7891,187.9922 1473.3281,187.9922 Q1474.7109,187.9922 1476.2578,188.4609 Q1477.6406,189.0703 1477.6406,188.8828 Q1477.8984,188.8828 1478.1094,188.0625 L1479.6563,187.9453 L1479.8906,194.9766 L1478.4375,195.1172 Q1477.2188,189.8203 1473.5391,189.8203 Q1472.4609,189.8203 1471.3359,190.2188 Q1470.0938,190.6875 1469.3906,191.4141 Q1467.4688,193.5703 1467.4453,198.0938 Q1467.4219,202.0547 1469.5781,204.2578 Q1471.3594,206.0859 1473.8906,206.0859 Q1476.7031,206.0859 1479.4453,202.875 L1480.3125,204.1406 Z "/><text fill="#000000" font-family="sans-serif" font-size="18" lengthAdjust="spacingAndGlyphs" textLength="109.5" x="1494.75" y="206.8638">SettingScene</text><line style="stroke: #A80036; stroke-width: 2.25;" x1="1452.75" x2="1607.25" y1="222" y2="222"/><line style="stroke: #A80036; stroke-width: 2.25;" x1="1452.75" x2="1607.25" y1="234" y2="234"/><!--class AudioHelper--><rect fill="#FEFECE" filter="url(#fwx3eeanx46ts)" height="72" id="AudioHelper" style="stroke: #A80036; stroke-width: 2.25;" width="151.5" x="1643.25" y="12"/><ellipse cx="1665.75" cy="36" fill="#B4A7E5" rx="16.5" ry="16.5" style="stroke: #A80036; stroke-width: 1.5;"/><path d="M1669.7813,45.7734 L1661.625,45.7734 L1661.625,44.2734 Q1663.5703,44.1563 1664.0156,43.7578 Q1664.4375,43.3594 1664.4375,42.0938 L1664.4375,30.1406 Q1664.4375,28.8281 1663.9688,28.4063 Q1663.5703,28.0547 1661.625,27.9375 L1661.625,26.4375 L1669.7813,26.4375 L1669.7813,27.9375 Q1667.9297,28.0313 1667.5078,28.3359 Q1666.9453,28.7813 1666.9453,30.1406 L1666.9453,42.0938 Q1666.9453,43.4063 1667.5078,43.8281 Q1667.9297,44.1797 1669.7813,44.2734 L1669.7813,45.7734 Z "/><text fill="#000000" font-family="sans-serif" font-size="18" font-style="italic" lengthAdjust="spacingAndGlyphs" textLength="103.5" x="1686.75" y="44.8638">AudioHelper</text><line style="stroke: #A80036; stroke-width: 2.25;" x1="1644.75" x2="1793.25" y1="60" y2="60"/><line style="stroke: #A80036; stroke-width: 2.25;" x1="1644.75" x2="1793.25" y1="72" y2="72"/><!--class Allegro5--><rect fill="#FEFECE" filter="url(#fwx3eeanx46ts)" height="72" id="Allegro5" style="stroke: #A80036; stroke-width: 2.25;" width="115.5" x="1661.25" y="174"/><ellipse cx="1683.75" cy="198" fill="#ADD1B2" rx="16.5" ry="16.5" style="stroke: #A80036; stroke-width: 1.5;"/><path d="M1690.3125,204.1406 Q1689.5625,205.4531 1688.2031,206.4844 Q1685.9531,208.1016 1683.1875,208.1016 Q1679.6953,208.1016 1677.3281,205.7578 Q1674.6328,203.0391 1674.6328,198.0469 Q1674.6328,193.4297 1677.3047,190.5938 Q1679.7891,187.9922 1683.3281,187.9922 Q1684.7109,187.9922 1686.2578,188.4609 Q1687.6406,189.0703 1687.6406,188.8828 Q1687.8984,188.8828 1688.1094,188.0625 L1689.6563,187.9453 L1689.8906,194.9766 L1688.4375,195.1172 Q1687.2188,189.8203 1683.5391,189.8203 Q1682.4609,189.8203 1681.3359,190.2188 Q1680.0938,190.6875 1679.3906,191.4141 Q1677.4688,193.5703 1677.4453,198.0938 Q1677.4219,202.0547 1679.5781,204.2578 Q1681.3594,206.0859 1683.8906,206.0859 Q1686.7031,206.0859 1689.4453,202.875 L1690.3125,204.1406 Z "/><text fill="#000000" font-family="sans-serif" font-size="18" lengthAdjust="spacingAndGlyphs" textLength="67.5" x="1704.75" y="206.8638">Allegro5</text><line style="stroke: #A80036; stroke-width: 2.25;" x1="1662.75" x2="1775.25" y1="222" y2="222"/><line style="stroke: #A80036; stroke-width: 2.25;" x1="1662.75" x2="1775.25" y1="234" y2="234"/><!--class LayoutHelper--><rect fill="#FEFECE" filter="url(#fwx3eeanx46ts)" height="72" id="LayoutHelper" style="stroke: #A80036; stroke-width: 2.25;" width="159" x="1848" y="12"/><ellipse cx="1870.5" cy="36" fill="#B4A7E5" rx="16.5" ry="16.5" style="stroke: #A80036; stroke-width: 1.5;"/><path d="M1874.5313,45.7734 L1866.375,45.7734 L1866.375,44.2734 Q1868.3203,44.1563 1868.7656,43.7578 Q1869.1875,43.3594 1869.1875,42.0938 L1869.1875,30.1406 Q1869.1875,28.8281 1868.7188,28.4063 Q1868.3203,28.0547 1866.375,27.9375 L1866.375,26.4375 L1874.5313,26.4375 L1874.5313,27.9375 Q1872.6797,28.0313 1872.2578,28.3359 Q1871.6953,28.7813 1871.6953,30.1406 L1871.6953,42.0938 Q1871.6953,43.4063 1872.2578,43.8281 Q1872.6797,44.1797 1874.5313,44.2734 L1874.5313,45.7734 Z "/><text fill="#000000" font-family="sans-serif" font-size="18" font-style="italic" lengthAdjust="spacingAndGlyphs" textLength="111" x="1891.5" y="44.8638">LayoutHelper</text><line style="stroke: #A80036; stroke-width: 2.25;" x1="1849.5" x2="2005.5" y1="60" y2="60"/><line style="stroke: #A80036; stroke-width: 2.25;" x1="1849.5" x2="2005.5" y1="72" y2="72"/><!--class Window--><rect fill="#FEFECE" filter="url(#fwx3eeanx46ts)" height="72" id="Window" style="stroke: #A80036; stroke-width: 2.25;" width="114" x="1870.5" y="174"/><ellipse cx="1893" cy="198" fill="#ADD1B2" rx="16.5" ry="16.5" style="stroke: #A80036; stroke-width: 1.5;"/><path d="M1899.5625,204.1406 Q1898.8125,205.4531 1897.4531,206.4844 Q1895.2031,208.1016 1892.4375,208.1016 Q1888.9453,208.1016 1886.5781,205.7578 Q1883.8828,203.0391 1883.8828,198.0469 Q1883.8828,193.4297 1886.5547,190.5938 Q1889.0391,187.9922 1892.5781,187.9922 Q1893.9609,187.9922 1895.5078,188.4609 Q1896.8906,189.0703 1896.8906,188.8828 Q1897.1484,188.8828 1897.3594,188.0625 L1898.9063,187.9453 L1899.1406,194.9766 L1897.6875,195.1172 Q1896.4688,189.8203 1892.7891,189.8203 Q1891.7109,189.8203 1890.5859,190.2188 Q1889.3438,190.6875 1888.6406,191.4141 Q1886.7188,193.5703 1886.6953,198.0938 Q1886.6719,202.0547 1888.8281,204.2578 Q1890.6094,206.0859 1893.1406,206.0859 Q1895.9531,206.0859 1898.6953,202.875 L1899.5625,204.1406 Z "/><text fill="#000000" font-family="sans-serif" font-size="18" lengthAdjust="spacingAndGlyphs" textLength="66" x="1914" y="206.8638">Window</text><line style="stroke: #A80036; stroke-width: 2.25;" x1="1872" x2="1983" y1="222" y2="222"/><line style="stroke: #A80036; stroke-width: 2.25;" x1="1872" x2="1983" y1="234" y2="234"/><!--class FileHelper--><rect fill="#FEFECE" filter="url(#fwx3eeanx46ts)" height="72" id="FileHelper" style="stroke: #A80036; stroke-width: 2.25;" width="133.5" x="2060.25" y="12"/><ellipse cx="2082.75" cy="36" fill="#B4A7E5" rx="16.5" ry="16.5" style="stroke: #A80036; stroke-width: 1.5;"/><path d="M2086.7813,45.7734 L2078.625,45.7734 L2078.625,44.2734 Q2080.5703,44.1563 2081.0156,43.7578 Q2081.4375,43.3594 2081.4375,42.0938 L2081.4375,30.1406 Q2081.4375,28.8281 2080.9688,28.4063 Q2080.5703,28.0547 2078.625,27.9375 L2078.625,26.4375 L2086.7813,26.4375 L2086.7813,27.9375 Q2084.9297,28.0313 2084.5078,28.3359 Q2083.9453,28.7813 2083.9453,30.1406 L2083.9453,42.0938 Q2083.9453,43.4063 2084.5078,43.8281 Q2084.9297,44.1797 2086.7813,44.2734 L2086.7813,45.7734 Z "/><text fill="#000000" font-family="sans-serif" font-size="18" font-style="italic" lengthAdjust="spacingAndGlyphs" textLength="85.5" x="2103.75" y="44.8638">FileHelper</text><line style="stroke: #A80036; stroke-width: 2.25;" x1="2061.75" x2="2192.25" y1="60" y2="60"/><line style="stroke: #A80036; stroke-width: 2.25;" x1="2061.75" x2="2192.25" y1="72" y2="72"/><!--class Files--><rect fill="#FEFECE" filter="url(#fwx3eeanx46ts)" height="72" id="Files" style="stroke: #A80036; stroke-width: 2.25;" width="88.5" x="2082.75" y="174"/><ellipse cx="2105.25" cy="198" fill="#ADD1B2" rx="16.5" ry="16.5" style="stroke: #A80036; stroke-width: 1.5;"/><path d="M2111.8125,204.1406 Q2111.0625,205.4531 2109.7031,206.4844 Q2107.4531,208.1016 2104.6875,208.1016 Q2101.1953,208.1016 2098.8281,205.7578 Q2096.1328,203.0391 2096.1328,198.0469 Q2096.1328,193.4297 2098.8047,190.5938 Q2101.2891,187.9922 2104.8281,187.9922 Q2106.2109,187.9922 2107.7578,188.4609 Q2109.1406,189.0703 2109.1406,188.8828 Q2109.3984,188.8828 2109.6094,188.0625 L2111.1563,187.9453 L2111.3906,194.9766 L2109.9375,195.1172 Q2108.7188,189.8203 2105.0391,189.8203 Q2103.9609,189.8203 2102.8359,190.2188 Q2101.5938,190.6875 2100.8906,191.4141 Q2098.9688,193.5703 2098.9453,198.0938 Q2098.9219,202.0547 2101.0781,204.2578 Q2102.8594,206.0859 2105.3906,206.0859 Q2108.2031,206.0859 2110.9453,202.875 L2111.8125,204.1406 Z "/><text fill="#000000" font-family="sans-serif" font-size="18" lengthAdjust="spacingAndGlyphs" textLength="40.5" x="2126.25" y="206.8638">Files</text><line style="stroke: #A80036; stroke-width: 2.25;" x1="2084.25" x2="2169.75" y1="222" y2="222"/><line style="stroke: #A80036; stroke-width: 2.25;" x1="2084.25" x2="2169.75" y1="234" y2="234"/><!--class IControl--><rect fill="#FEFECE" filter="url(#fwx3eeanx46ts)" height="72" id="IControl" style="stroke: #A80036; stroke-width: 2.25;" width="112.5" x="2471.25" y="12"/><ellipse cx="2493.75" cy="36" fill="#ADD1B2" rx="16.5" ry="16.5" style="stroke: #A80036; stroke-width: 1.5;"/><path d="M2500.3125,42.1406 Q2499.5625,43.4531 2498.2031,44.4844 Q2495.9531,46.1016 2493.1875,46.1016 Q2489.6953,46.1016 2487.3281,43.7578 Q2484.6328,41.0391 2484.6328,36.0469 Q2484.6328,31.4297 2487.3047,28.5938 Q2489.7891,25.9922 2493.3281,25.9922 Q2494.7109,25.9922 2496.2578,26.4609 Q2497.6406,27.0703 2497.6406,26.8828 Q2497.8984,26.8828 2498.1094,26.0625 L2499.6563,25.9453 L2499.8906,32.9766 L2498.4375,33.1172 Q2497.2188,27.8203 2493.5391,27.8203 Q2492.4609,27.8203 2491.3359,28.2188 Q2490.0938,28.6875 2489.3906,29.4141 Q2487.4688,31.5703 2487.4453,36.0938 Q2487.4219,40.0547 2489.5781,42.2578 Q2491.3594,44.0859 2493.8906,44.0859 Q2496.7031,44.0859 2499.4453,40.875 L2500.3125,42.1406 Z "/><text fill="#000000" font-family="sans-serif" font-size="18" lengthAdjust="spacingAndGlyphs" textLength="64.5" x="2514.75" y="44.8638">IControl</text><line style="stroke: #A80036; stroke-width: 2.25;" x1="2472.75" x2="2582.25" y1="60" y2="60"/><line style="stroke: #A80036; stroke-width: 2.25;" x1="2472.75" x2="2582.25" y1="72" y2="72"/><!--class IObject--><rect fill="#FEFECE" filter="url(#fwx3eeanx46ts)" height="72" id="IObject" style="stroke: #A80036; stroke-width: 2.25;" width="105" x="2713.5" y="12"/><ellipse cx="2736" cy="36" fill="#ADD1B2" rx="16.5" ry="16.5" style="stroke: #A80036; stroke-width: 1.5;"/><path d="M2742.5625,42.1406 Q2741.8125,43.4531 2740.4531,44.4844 Q2738.2031,46.1016 2735.4375,46.1016 Q2731.9453,46.1016 2729.5781,43.7578 Q2726.8828,41.0391 2726.8828,36.0469 Q2726.8828,31.4297 2729.5547,28.5938 Q2732.0391,25.9922 2735.5781,25.9922 Q2736.9609,25.9922 2738.5078,26.4609 Q2739.8906,27.0703 2739.8906,26.8828 Q2740.1484,26.8828 2740.3594,26.0625 L2741.9063,25.9453 L2742.1406,32.9766 L2740.6875,33.1172 Q2739.4688,27.8203 2735.7891,27.8203 Q2734.7109,27.8203 2733.5859,28.2188 Q2732.3438,28.6875 2731.6406,29.4141 Q2729.7188,31.5703 2729.6953,36.0938 Q2729.6719,40.0547 2731.8281,42.2578 Q2733.6094,44.0859 2736.1406,44.0859 Q2738.9531,44.0859 2741.6953,40.875 L2742.5625,42.1406 Z "/><text fill="#000000" font-family="sans-serif" font-size="18" lengthAdjust="spacingAndGlyphs" textLength="57" x="2757" y="44.8638">IObject</text><line style="stroke: #A80036; stroke-width: 2.25;" x1="2715" x2="2817" y1="60" y2="60"/><line style="stroke: #A80036; stroke-width: 2.25;" x1="2715" x2="2817" y1="72" y2="72"/><!--class SelfBulletManager--><rect fill="#FEFECE" filter="url(#fwx3eeanx46ts)" height="72" id="SelfBulletManager" style="stroke: #A80036; stroke-width: 2.25;" width="198" x="697.5" y="371.25"/><ellipse cx="720" cy="395.25" fill="#B4A7E5" rx="16.5" ry="16.5" style="stroke: #A80036; stroke-width: 1.5;"/><path d="M724.0313,405.0234 L715.875,405.0234 L715.875,403.5234 Q717.8203,403.4063 718.2656,403.0078 Q718.6875,402.6094 718.6875,401.3438 L718.6875,389.3906 Q718.6875,388.0781 718.2188,387.6563 Q717.8203,387.3047 715.875,387.1875 L715.875,385.6875 L724.0313,385.6875 L724.0313,387.1875 Q722.1797,387.2813 721.7578,387.5859 Q721.1953,388.0313 721.1953,389.3906 L721.1953,401.3438 Q721.1953,402.6563 721.7578,403.0781 Q722.1797,403.4297 724.0313,403.5234 L724.0313,405.0234 Z "/><text fill="#000000" font-family="sans-serif" font-size="18" font-style="italic" lengthAdjust="spacingAndGlyphs" textLength="150" x="741" y="404.1138">SelfBulletManager</text><line style="stroke: #A80036; stroke-width: 2.25;" x1="699" x2="894" y1="419.25" y2="419.25"/><line style="stroke: #A80036; stroke-width: 2.25;" x1="699" x2="894" y1="431.25" y2="431.25"/><!--class SelfBullet--><rect fill="#FEFECE" filter="url(#fwx3eeanx46ts)" height="72" id="SelfBullet" style="stroke: #A80036; stroke-width: 2.25;" width="126" x="733.5" y="568.5"/><ellipse cx="756" cy="592.5" fill="#ADD1B2" rx="16.5" ry="16.5" style="stroke: #A80036; stroke-width: 1.5;"/><path d="M762.5625,598.6406 Q761.8125,599.9531 760.4531,600.9844 Q758.2031,602.6016 755.4375,602.6016 Q751.9453,602.6016 749.5781,600.2578 Q746.8828,597.5391 746.8828,592.5469 Q746.8828,587.9297 749.5547,585.0938 Q752.0391,582.4922 755.5781,582.4922 Q756.9609,582.4922 758.5078,582.9609 Q759.8906,583.5703 759.8906,583.3828 Q760.1484,583.3828 760.3594,582.5625 L761.9063,582.4453 L762.1406,589.4766 L760.6875,589.6172 Q759.4688,584.3203 755.7891,584.3203 Q754.7109,584.3203 753.5859,584.7188 Q752.3438,585.1875 751.6406,585.9141 Q749.7188,588.0703 749.6953,592.5938 Q749.6719,596.5547 751.8281,598.7578 Q753.6094,600.5859 756.1406,600.5859 Q758.9531,600.5859 761.6953,597.375 L762.5625,598.6406 Z "/><text fill="#000000" font-family="sans-serif" font-size="18" lengthAdjust="spacingAndGlyphs" textLength="78" x="777" y="601.3638">SelfBullet</text><line style="stroke: #A80036; stroke-width: 2.25;" x1="735" x2="858" y1="616.5" y2="616.5"/><line style="stroke: #A80036; stroke-width: 2.25;" x1="735" x2="858" y1="628.5" y2="628.5"/><!--class Itemmanager--><rect fill="#FEFECE" filter="url(#fwx3eeanx46ts)" height="72" id="Itemmanager" style="stroke: #A80036; stroke-width: 2.25;" width="160.5" x="948.75" y="371.25"/><ellipse cx="971.25" cy="395.25" fill="#B4A7E5" rx="16.5" ry="16.5" style="stroke: #A80036; stroke-width: 1.5;"/><path d="M975.2813,405.0234 L967.125,405.0234 L967.125,403.5234 Q969.0703,403.4063 969.5156,403.0078 Q969.9375,402.6094 969.9375,401.3438 L969.9375,389.3906 Q969.9375,388.0781 969.4688,387.6563 Q969.0703,387.3047 967.125,387.1875 L967.125,385.6875 L975.2813,385.6875 L975.2813,387.1875 Q973.4297,387.2813 973.0078,387.5859 Q972.4453,388.0313 972.4453,389.3906 L972.4453,401.3438 Q972.4453,402.6563 973.0078,403.0781 Q973.4297,403.4297 975.2813,403.5234 L975.2813,405.0234 Z "/><text fill="#000000" font-family="sans-serif" font-size="18" font-style="italic" lengthAdjust="spacingAndGlyphs" textLength="112.5" x="992.25" y="404.1138">Itemmanager</text><line style="stroke: #A80036; stroke-width: 2.25;" x1="950.25" x2="1107.75" y1="419.25" y2="419.25"/><line style="stroke: #A80036; stroke-width: 2.25;" x1="950.25" x2="1107.75" y1="431.25" y2="431.25"/><!--class Item--><rect fill="#FEFECE" filter="url(#fwx3eeanx46ts)" height="72" id="Item" style="stroke: #A80036; stroke-width: 2.25;" width="84" x="987" y="568.5"/><ellipse cx="1009.5" cy="592.5" fill="#ADD1B2" rx="16.5" ry="16.5" style="stroke: #A80036; stroke-width: 1.5;"/><path d="M1016.0625,598.6406 Q1015.3125,599.9531 1013.9531,600.9844 Q1011.7031,602.6016 1008.9375,602.6016 Q1005.4453,602.6016 1003.0781,600.2578 Q1000.3828,597.5391 1000.3828,592.5469 Q1000.3828,587.9297 1003.0547,585.0938 Q1005.5391,582.4922 1009.0781,582.4922 Q1010.4609,582.4922 1012.0078,582.9609 Q1013.3906,583.5703 1013.3906,583.3828 Q1013.6484,583.3828 1013.8594,582.5625 L1015.4063,582.4453 L1015.6406,589.4766 L1014.1875,589.6172 Q1012.9688,584.3203 1009.2891,584.3203 Q1008.2109,584.3203 1007.0859,584.7188 Q1005.8438,585.1875 1005.1406,585.9141 Q1003.2188,588.0703 1003.1953,592.5938 Q1003.1719,596.5547 1005.3281,598.7578 Q1007.1094,600.5859 1009.6406,600.5859 Q1012.4531,600.5859 1015.1953,597.375 L1016.0625,598.6406 Z "/><text fill="#000000" font-family="sans-serif" font-size="18" lengthAdjust="spacingAndGlyphs" textLength="36" x="1030.5" y="601.3638">Item</text><line style="stroke: #A80036; stroke-width: 2.25;" x1="988.5" x2="1069.5" y1="616.5" y2="616.5"/><line style="stroke: #A80036; stroke-width: 2.25;" x1="988.5" x2="1069.5" y1="628.5" y2="628.5"/><!--class EnemyManager--><rect fill="#FEFECE" filter="url(#fwx3eeanx46ts)" height="72" id="EnemyManager" style="stroke: #A80036; stroke-width: 2.25;" width="178.5" x="1161.75" y="371.25"/><ellipse cx="1184.25" cy="395.25" fill="#B4A7E5" rx="16.5" ry="16.5" style="stroke: #A80036; stroke-width: 1.5;"/><path d="M1188.2813,405.0234 L1180.125,405.0234 L1180.125,403.5234 Q1182.0703,403.4063 1182.5156,403.0078 Q1182.9375,402.6094 1182.9375,401.3438 L1182.9375,389.3906 Q1182.9375,388.0781 1182.4688,387.6563 Q1182.0703,387.3047 1180.125,387.1875 L1180.125,385.6875 L1188.2813,385.6875 L1188.2813,387.1875 Q1186.4297,387.2813 1186.0078,387.5859 Q1185.4453,388.0313 1185.4453,389.3906 L1185.4453,401.3438 Q1185.4453,402.6563 1186.0078,403.0781 Q1186.4297,403.4297 1188.2813,403.5234 L1188.2813,405.0234 Z "/><text fill="#000000" font-family="sans-serif" font-size="18" font-style="italic" lengthAdjust="spacingAndGlyphs" textLength="130.5" x="1205.25" y="404.1138">EnemyManager</text><line style="stroke: #A80036; stroke-width: 2.25;" x1="1163.25" x2="1338.75" y1="419.25" y2="419.25"/><line style="stroke: #A80036; stroke-width: 2.25;" x1="1163.25" x2="1338.75" y1="431.25" y2="431.25"/><!--class Enemy--><rect fill="#FEFECE" filter="url(#fwx3eeanx46ts)" height="72" id="Enemy" style="stroke: #A80036; stroke-width: 2.25;" width="105" x="1198.5" y="568.5"/><ellipse cx="1221" cy="592.5" fill="#ADD1B2" rx="16.5" ry="16.5" style="stroke: #A80036; stroke-width: 1.5;"/><path d="M1227.5625,598.6406 Q1226.8125,599.9531 1225.4531,600.9844 Q1223.2031,602.6016 1220.4375,602.6016 Q1216.9453,602.6016 1214.5781,600.2578 Q1211.8828,597.5391 1211.8828,592.5469 Q1211.8828,587.9297 1214.5547,585.0938 Q1217.0391,582.4922 1220.5781,582.4922 Q1221.9609,582.4922 1223.5078,582.9609 Q1224.8906,583.5703 1224.8906,583.3828 Q1225.1484,583.3828 1225.3594,582.5625 L1226.9063,582.4453 L1227.1406,589.4766 L1225.6875,589.6172 Q1224.4688,584.3203 1220.7891,584.3203 Q1219.7109,584.3203 1218.5859,584.7188 Q1217.3438,585.1875 1216.6406,585.9141 Q1214.7188,588.0703 1214.6953,592.5938 Q1214.6719,596.5547 1216.8281,598.7578 Q1218.6094,600.5859 1221.1406,600.5859 Q1223.9531,600.5859 1226.6953,597.375 L1227.5625,598.6406 Z "/><text fill="#000000" font-family="sans-serif" font-size="18" lengthAdjust="spacingAndGlyphs" textLength="57" x="1242" y="601.3638">Enemy</text><line style="stroke: #A80036; stroke-width: 2.25;" x1="1200" x2="1302" y1="616.5" y2="616.5"/><line style="stroke: #A80036; stroke-width: 2.25;" x1="1200" x2="1302" y1="628.5" y2="628.5"/><!--class BulletManager--><rect fill="#FEFECE" filter="url(#fwx3eeanx46ts)" height="72" id="BulletManager" style="stroke: #A80036; stroke-width: 2.25;" width="166.5" x="1392.75" y="371.25"/><ellipse cx="1415.25" cy="395.25" fill="#B4A7E5" rx="16.5" ry="16.5" style="stroke: #A80036; stroke-width: 1.5;"/><path d="M1419.2813,405.0234 L1411.125,405.0234 L1411.125,403.5234 Q1413.0703,403.4063 1413.5156,403.0078 Q1413.9375,402.6094 1413.9375,401.3438 L1413.9375,389.3906 Q1413.9375,388.0781 1413.4688,387.6563 Q1413.0703,387.3047 1411.125,387.1875 L1411.125,385.6875 L1419.2813,385.6875 L1419.2813,387.1875 Q1417.4297,387.2813 1417.0078,387.5859 Q1416.4453,388.0313 1416.4453,389.3906 L1416.4453,401.3438 Q1416.4453,402.6563 1417.0078,403.0781 Q1417.4297,403.4297 1419.2813,403.5234 L1419.2813,405.0234 Z "/><text fill="#000000" font-family="sans-serif" font-size="18" font-style="italic" lengthAdjust="spacingAndGlyphs" textLength="118.5" x="1436.25" y="404.1138">BulletManager</text><line style="stroke: #A80036; stroke-width: 2.25;" x1="1394.25" x2="1557.75" y1="419.25" y2="419.25"/><line style="stroke: #A80036; stroke-width: 2.25;" x1="1394.25" x2="1557.75" y1="431.25" y2="431.25"/><!--class Bullet--><rect fill="#FEFECE" filter="url(#fwx3eeanx46ts)" height="72" id="Bullet" style="stroke: #A80036; stroke-width: 2.25;" width="94.5" x="1428.75" y="568.5"/><ellipse cx="1451.25" cy="592.5" fill="#ADD1B2" rx="16.5" ry="16.5" style="stroke: #A80036; stroke-width: 1.5;"/><path d="M1457.8125,598.6406 Q1457.0625,599.9531 1455.7031,600.9844 Q1453.4531,602.6016 1450.6875,602.6016 Q1447.1953,602.6016 1444.8281,600.2578 Q1442.1328,597.5391 1442.1328,592.5469 Q1442.1328,587.9297 1444.8047,585.0938 Q1447.2891,582.4922 1450.8281,582.4922 Q1452.2109,582.4922 1453.7578,582.9609 Q1455.1406,583.5703 1455.1406,583.3828 Q1455.3984,583.3828 1455.6094,582.5625 L1457.1563,582.4453 L1457.3906,589.4766 L1455.9375,589.6172 Q1454.7188,584.3203 1451.0391,584.3203 Q1449.9609,584.3203 1448.8359,584.7188 Q1447.5938,585.1875 1446.8906,585.9141 Q1444.9688,588.0703 1444.9453,592.5938 Q1444.9219,596.5547 1447.0781,598.7578 Q1448.8594,600.5859 1451.3906,600.5859 Q1454.2031,600.5859 1456.9453,597.375 L1457.8125,598.6406 Z "/><text fill="#000000" font-family="sans-serif" font-size="18" lengthAdjust="spacingAndGlyphs" textLength="46.5" x="1472.25" y="601.3638">Bullet</text><line style="stroke: #A80036; stroke-width: 2.25;" x1="1430.25" x2="1521.75" y1="616.5" y2="616.5"/><line style="stroke: #A80036; stroke-width: 2.25;" x1="1430.25" x2="1521.75" y1="628.5" y2="628.5"/><!--class Animation--><rect fill="#FEFECE" filter="url(#fwx3eeanx46ts)" height="72" id="Animation" style="stroke: #A80036; stroke-width: 2.25;" width="130.5" x="659.25" y="12"/><ellipse cx="681.75" cy="36" fill="#ADD1B2" rx="16.5" ry="16.5" style="stroke: #A80036; stroke-width: 1.5;"/><path d="M688.3125,42.1406 Q687.5625,43.4531 686.2031,44.4844 Q683.9531,46.1016 681.1875,46.1016 Q677.6953,46.1016 675.3281,43.7578 Q672.6328,41.0391 672.6328,36.0469 Q672.6328,31.4297 675.3047,28.5938 Q677.7891,25.9922 681.3281,25.9922 Q682.7109,25.9922 684.2578,26.4609 Q685.6406,27.0703 685.6406,26.8828 Q685.8984,26.8828 686.1094,26.0625 L687.6563,25.9453 L687.8906,32.9766 L686.4375,33.1172 Q685.2188,27.8203 681.5391,27.8203 Q680.4609,27.8203 679.3359,28.2188 Q678.0938,28.6875 677.3906,29.4141 Q675.4688,31.5703 675.4453,36.0938 Q675.4219,40.0547 677.5781,42.2578 Q679.3594,44.0859 681.8906,44.0859 Q684.7031,44.0859 687.4453,40.875 L688.3125,42.1406 Z "/><text fill="#000000" font-family="sans-serif" font-size="18" lengthAdjust="spacingAndGlyphs" textLength="82.5" x="702.75" y="44.8638">Animation</text><line style="stroke: #A80036; stroke-width: 2.25;" x1="660.75" x2="788.25" y1="60" y2="60"/><line style="stroke: #A80036; stroke-width: 2.25;" x1="660.75" x2="788.25" y1="72" y2="72"/><!--class Boss--><rect fill="#FEFECE" filter="url(#fwx3eeanx46ts)" height="72" id="Boss" style="stroke: #A80036; stroke-width: 2.25;" width="91.5" x="1205.25" y="730.5"/><ellipse cx="1227.75" cy="754.5" fill="#ADD1B2" rx="16.5" ry="16.5" style="stroke: #A80036; stroke-width: 1.5;"/><path d="M1234.3125,760.6406 Q1233.5625,761.9531 1232.2031,762.9844 Q1229.9531,764.6016 1227.1875,764.6016 Q1223.6953,764.6016 1221.3281,762.2578 Q1218.6328,759.5391 1218.6328,754.5469 Q1218.6328,749.9297 1221.3047,747.0938 Q1223.7891,744.4922 1227.3281,744.4922 Q1228.7109,744.4922 1230.2578,744.9609 Q1231.6406,745.5703 1231.6406,745.3828 Q1231.8984,745.3828 1232.1094,744.5625 L1233.6563,744.4453 L1233.8906,751.4766 L1232.4375,751.6172 Q1231.2188,746.3203 1227.5391,746.3203 Q1226.4609,746.3203 1225.3359,746.7188 Q1224.0938,747.1875 1223.3906,747.9141 Q1221.4688,750.0703 1221.4453,754.5938 Q1221.4219,758.5547 1223.5781,760.7578 Q1225.3594,762.5859 1227.8906,762.5859 Q1230.7031,762.5859 1233.4453,759.375 L1234.3125,760.6406 Z "/><text fill="#000000" font-family="sans-serif" font-size="18" lengthAdjust="spacingAndGlyphs" textLength="43.5" x="1248.75" y="763.3638">Boss</text><line style="stroke: #A80036; stroke-width: 2.25;" x1="1206.75" x2="1295.25" y1="778.5" y2="778.5"/><line style="stroke: #A80036; stroke-width: 2.25;" x1="1206.75" x2="1295.25" y1="790.5" y2="790.5"/><!--class Collider--><rect fill="#FEFECE" filter="url(#fwx3eeanx46ts)" height="72" id="Collider" style="stroke: #A80036; stroke-width: 2.25;" width="112.5" x="50.25" y="174"/><ellipse cx="72.75" cy="198" fill="#ADD1B2" rx="16.5" ry="16.5" style="stroke: #A80036; stroke-width: 1.5;"/><path d="M79.3125,204.1406 Q78.5625,205.4531 77.2031,206.4844 Q74.9531,208.1016 72.1875,208.1016 Q68.6953,208.1016 66.3281,205.7578 Q63.6328,203.0391 63.6328,198.0469 Q63.6328,193.4297 66.3047,190.5938 Q68.7891,187.9922 72.3281,187.9922 Q73.7109,187.9922 75.2578,188.4609 Q76.6406,189.0703 76.6406,188.8828 Q76.8984,188.8828 77.1094,188.0625 L78.6563,187.9453 L78.8906,194.9766 L77.4375,195.1172 Q76.2188,189.8203 72.5391,189.8203 Q71.4609,189.8203 70.3359,190.2188 Q69.0938,190.6875 68.3906,191.4141 Q66.4688,193.5703 66.4453,198.0938 Q66.4219,202.0547 68.5781,204.2578 Q70.3594,206.0859 72.8906,206.0859 Q75.7031,206.0859 78.4453,202.875 L79.3125,204.1406 Z "/><text fill="#000000" font-family="sans-serif" font-size="18" lengthAdjust="spacingAndGlyphs" textLength="64.5" x="93.75" y="206.8638">Collider</text><line style="stroke: #A80036; stroke-width: 2.25;" x1="51.75" x2="161.25" y1="222" y2="222"/><line style="stroke: #A80036; stroke-width: 2.25;" x1="51.75" x2="161.25" y1="234" y2="234"/><!--class Fighter--><rect fill="#FEFECE" filter="url(#fwx3eeanx46ts)" height="72" id="Fighter" style="stroke: #A80036; stroke-width: 2.25;" width="105" x="216" y="174"/><ellipse cx="238.5" cy="198" fill="#ADD1B2" rx="16.5" ry="16.5" style="stroke: #A80036; stroke-width: 1.5;"/><path d="M245.0625,204.1406 Q244.3125,205.4531 242.9531,206.4844 Q240.7031,208.1016 237.9375,208.1016 Q234.4453,208.1016 232.0781,205.7578 Q229.3828,203.0391 229.3828,198.0469 Q229.3828,193.4297 232.0547,190.5938 Q234.5391,187.9922 238.0781,187.9922 Q239.4609,187.9922 241.0078,188.4609 Q242.3906,189.0703 242.3906,188.8828 Q242.6484,188.8828 242.8594,188.0625 L244.4063,187.9453 L244.6406,194.9766 L243.1875,195.1172 Q241.9688,189.8203 238.2891,189.8203 Q237.2109,189.8203 236.0859,190.2188 Q234.8438,190.6875 234.1406,191.4141 Q232.2188,193.5703 232.1953,198.0938 Q232.1719,202.0547 234.3281,204.2578 Q236.1094,206.0859 238.6406,206.0859 Q241.4531,206.0859 244.1953,202.875 L245.0625,204.1406 Z "/><text fill="#000000" font-family="sans-serif" font-size="18" lengthAdjust="spacingAndGlyphs" textLength="57" x="259.5" y="206.8638">Fighter</text><line style="stroke: #A80036; stroke-width: 2.25;" x1="217.5" x2="319.5" y1="222" y2="222"/><line style="stroke: #A80036; stroke-width: 2.25;" x1="217.5" x2="319.5" y1="234" y2="234"/><!--class Flag--><rect fill="#FEFECE" filter="url(#fwx3eeanx46ts)" height="72" id="Flag" style="stroke: #A80036; stroke-width: 2.25;" width="84" x="373.5" y="174"/><ellipse cx="396" cy="198" fill="#ADD1B2" rx="16.5" ry="16.5" style="stroke: #A80036; stroke-width: 1.5;"/><path d="M402.5625,204.1406 Q401.8125,205.4531 400.4531,206.4844 Q398.2031,208.1016 395.4375,208.1016 Q391.9453,208.1016 389.5781,205.7578 Q386.8828,203.0391 386.8828,198.0469 Q386.8828,193.4297 389.5547,190.5938 Q392.0391,187.9922 395.5781,187.9922 Q396.9609,187.9922 398.5078,188.4609 Q399.8906,189.0703 399.8906,188.8828 Q400.1484,188.8828 400.3594,188.0625 L401.9063,187.9453 L402.1406,194.9766 L400.6875,195.1172 Q399.4688,189.8203 395.7891,189.8203 Q394.7109,189.8203 393.5859,190.2188 Q392.3438,190.6875 391.6406,191.4141 Q389.7188,193.5703 389.6953,198.0938 Q389.6719,202.0547 391.8281,204.2578 Q393.6094,206.0859 396.1406,206.0859 Q398.9531,206.0859 401.6953,202.875 L402.5625,204.1406 Z "/><text fill="#000000" font-family="sans-serif" font-size="18" lengthAdjust="spacingAndGlyphs" textLength="36" x="417" y="206.8638">Flag</text><line style="stroke: #A80036; stroke-width: 2.25;" x1="375" x2="456" y1="222" y2="222"/><line style="stroke: #A80036; stroke-width: 2.25;" x1="375" x2="456" y1="234" y2="234"/><!--class Fragment--><rect fill="#FEFECE" filter="url(#fwx3eeanx46ts)" height="72" id="Fragment" style="stroke: #A80036; stroke-width: 2.25;" width="127.5" x="510.75" y="174"/><ellipse cx="533.25" cy="198" fill="#ADD1B2" rx="16.5" ry="16.5" style="stroke: #A80036; stroke-width: 1.5;"/><path d="M539.8125,204.1406 Q539.0625,205.4531 537.7031,206.4844 Q535.4531,208.1016 532.6875,208.1016 Q529.1953,208.1016 526.8281,205.7578 Q524.1328,203.0391 524.1328,198.0469 Q524.1328,193.4297 526.8047,190.5938 Q529.2891,187.9922 532.8281,187.9922 Q534.2109,187.9922 535.7578,188.4609 Q537.1406,189.0703 537.1406,188.8828 Q537.3984,188.8828 537.6094,188.0625 L539.1563,187.9453 L539.3906,194.9766 L537.9375,195.1172 Q536.7188,189.8203 533.0391,189.8203 Q531.9609,189.8203 530.8359,190.2188 Q529.5938,190.6875 528.8906,191.4141 Q526.9688,193.5703 526.9453,198.0938 Q526.9219,202.0547 529.0781,204.2578 Q530.8594,206.0859 533.3906,206.0859 Q536.2031,206.0859 538.9453,202.875 L539.8125,204.1406 Z "/><text fill="#000000" font-family="sans-serif" font-size="18" lengthAdjust="spacingAndGlyphs" textLength="79.5" x="554.25" y="206.8638">Fragment</text><line style="stroke: #A80036; stroke-width: 2.25;" x1="512.25" x2="636.75" y1="222" y2="222"/><line style="stroke: #A80036; stroke-width: 2.25;" x1="512.25" x2="636.75" y1="234" y2="234"/><!--class Group--><rect fill="#FEFECE" filter="url(#fwx3eeanx46ts)" height="72" id="Group" style="stroke: #A80036; stroke-width: 2.25;" width="99" x="2224.5" y="174"/><ellipse cx="2247" cy="198" fill="#ADD1B2" rx="16.5" ry="16.5" style="stroke: #A80036; stroke-width: 1.5;"/><path d="M2253.5625,204.1406 Q2252.8125,205.4531 2251.4531,206.4844 Q2249.2031,208.1016 2246.4375,208.1016 Q2242.9453,208.1016 2240.5781,205.7578 Q2237.8828,203.0391 2237.8828,198.0469 Q2237.8828,193.4297 2240.5547,190.5938 Q2243.0391,187.9922 2246.5781,187.9922 Q2247.9609,187.9922 2249.5078,188.4609 Q2250.8906,189.0703 2250.8906,188.8828 Q2251.1484,188.8828 2251.3594,188.0625 L2252.9063,187.9453 L2253.1406,194.9766 L2251.6875,195.1172 Q2250.4688,189.8203 2246.7891,189.8203 Q2245.7109,189.8203 2244.5859,190.2188 Q2243.3438,190.6875 2242.6406,191.4141 Q2240.7188,193.5703 2240.6953,198.0938 Q2240.6719,202.0547 2242.8281,204.2578 Q2244.6094,206.0859 2247.1406,206.0859 Q2249.9531,206.0859 2252.6953,202.875 L2253.5625,204.1406 Z "/><text fill="#000000" font-family="sans-serif" font-size="18" lengthAdjust="spacingAndGlyphs" textLength="51" x="2268" y="206.8638">Group</text><line style="stroke: #A80036; stroke-width: 2.25;" x1="2226" x2="2322" y1="222" y2="222"/><line style="stroke: #A80036; stroke-width: 2.25;" x1="2226" x2="2322" y1="234" y2="234"/><!--class Image--><rect fill="#FEFECE" filter="url(#fwx3eeanx46ts)" height="72" id="Image" style="stroke: #A80036; stroke-width: 2.25;" width="100.5" x="3044.25" y="174"/><ellipse cx="3066.75" cy="198" fill="#ADD1B2" rx="16.5" ry="16.5" style="stroke: #A80036; stroke-width: 1.5;"/><path d="M3073.3125,204.1406 Q3072.5625,205.4531 3071.2031,206.4844 Q3068.9531,208.1016 3066.1875,208.1016 Q3062.6953,208.1016 3060.3281,205.7578 Q3057.6328,203.0391 3057.6328,198.0469 Q3057.6328,193.4297 3060.3047,190.5938 Q3062.7891,187.9922 3066.3281,187.9922 Q3067.7109,187.9922 3069.2578,188.4609 Q3070.6406,189.0703 3070.6406,188.8828 Q3070.8984,188.8828 3071.1094,188.0625 L3072.6563,187.9453 L3072.8906,194.9766 L3071.4375,195.1172 Q3070.2188,189.8203 3066.5391,189.8203 Q3065.4609,189.8203 3064.3359,190.2188 Q3063.0938,190.6875 3062.3906,191.4141 Q3060.4688,193.5703 3060.4453,198.0938 Q3060.4219,202.0547 3062.5781,204.2578 Q3064.3594,206.0859 3066.8906,206.0859 Q3069.7031,206.0859 3072.4453,202.875 L3073.3125,204.1406 Z "/><text fill="#000000" font-family="sans-serif" font-size="18" lengthAdjust="spacingAndGlyphs" textLength="52.5" x="3087.75" y="206.8638">Image</text><line style="stroke: #A80036; stroke-width: 2.25;" x1="3045.75" x2="3143.25" y1="222" y2="222"/><line style="stroke: #A80036; stroke-width: 2.25;" x1="3045.75" x2="3143.25" y1="234" y2="234"/><!--class ImageButton--><rect fill="#FEFECE" filter="url(#fwx3eeanx46ts)" height="72" id="ImageButton" style="stroke: #A80036; stroke-width: 2.25;" width="153" x="2376" y="174"/><ellipse cx="2398.5" cy="198" fill="#ADD1B2" rx="16.5" ry="16.5" style="stroke: #A80036; stroke-width: 1.5;"/><path d="M2405.0625,204.1406 Q2404.3125,205.4531 2402.9531,206.4844 Q2400.7031,208.1016 2397.9375,208.1016 Q2394.4453,208.1016 2392.0781,205.7578 Q2389.3828,203.0391 2389.3828,198.0469 Q2389.3828,193.4297 2392.0547,190.5938 Q2394.5391,187.9922 2398.0781,187.9922 Q2399.4609,187.9922 2401.0078,188.4609 Q2402.3906,189.0703 2402.3906,188.8828 Q2402.6484,188.8828 2402.8594,188.0625 L2404.4063,187.9453 L2404.6406,194.9766 L2403.1875,195.1172 Q2401.9688,189.8203 2398.2891,189.8203 Q2397.2109,189.8203 2396.0859,190.2188 Q2394.8438,190.6875 2394.1406,191.4141 Q2392.2188,193.5703 2392.1953,198.0938 Q2392.1719,202.0547 2394.3281,204.2578 Q2396.1094,206.0859 2398.6406,206.0859 Q2401.4531,206.0859 2404.1953,202.875 L2405.0625,204.1406 Z "/><text fill="#000000" font-family="sans-serif" font-size="18" lengthAdjust="spacingAndGlyphs" textLength="105" x="2419.5" y="206.8638">ImageButton</text><line style="stroke: #A80036; stroke-width: 2.25;" x1="2377.5" x2="2527.5" y1="222" y2="222"/><line style="stroke: #A80036; stroke-width: 2.25;" x1="2377.5" x2="2527.5" y1="234" y2="234"/><!--class Label--><rect fill="#FEFECE" filter="url(#fwx3eeanx46ts)" height="72" id="Label" style="stroke: #A80036; stroke-width: 2.25;" width="94.5" x="2897.25" y="174"/><ellipse cx="2919.75" cy="198" fill="#ADD1B2" rx="16.5" ry="16.5" style="stroke: #A80036; stroke-width: 1.5;"/><path d="M2926.3125,204.1406 Q2925.5625,205.4531 2924.2031,206.4844 Q2921.9531,208.1016 2919.1875,208.1016 Q2915.6953,208.1016 2913.3281,205.7578 Q2910.6328,203.0391 2910.6328,198.0469 Q2910.6328,193.4297 2913.3047,190.5938 Q2915.7891,187.9922 2919.3281,187.9922 Q2920.7109,187.9922 2922.2578,188.4609 Q2923.6406,189.0703 2923.6406,188.8828 Q2923.8984,188.8828 2924.1094,188.0625 L2925.6563,187.9453 L2925.8906,194.9766 L2924.4375,195.1172 Q2923.2188,189.8203 2919.5391,189.8203 Q2918.4609,189.8203 2917.3359,190.2188 Q2916.0938,190.6875 2915.3906,191.4141 Q2913.4688,193.5703 2913.4453,198.0938 Q2913.4219,202.0547 2915.5781,204.2578 Q2917.3594,206.0859 2919.8906,206.0859 Q2922.7031,206.0859 2925.4453,202.875 L2926.3125,204.1406 Z "/><text fill="#000000" font-family="sans-serif" font-size="18" lengthAdjust="spacingAndGlyphs" textLength="46.5" x="2940.75" y="206.8638">Label</text><line style="stroke: #A80036; stroke-width: 2.25;" x1="2898.75" x2="2990.25" y1="222" y2="222"/><line style="stroke: #A80036; stroke-width: 2.25;" x1="2898.75" x2="2990.25" y1="234" y2="234"/><!--class LOG--><rect fill="#FEFECE" filter="url(#fwx3eeanx46ts)" height="142.5037" id="LOG" style="stroke: #A80036; stroke-width: 2.25;" width="96" x="58.5" y="336"/><ellipse cx="85.725" cy="360" fill="#EB937F" rx="16.5" ry="16.5" style="stroke: #A80036; stroke-width: 1.5;"/><path d="M82.7484,351.8672 L82.7484,351.8672 Z M93.6469,364.2656 L92.3344,369.7734 L78.4594,369.7734 L78.4594,368.2969 Q80.1,368.1328 80.4516,367.8516 Q80.9203,367.4766 80.9203,366.1875 L80.9203,354.0234 Q80.9203,352.6641 80.4516,352.2891 Q80.1469,352.0313 78.4594,351.8906 L78.4594,350.4141 L92.2641,350.4141 L92.3344,355.1719 L90.8578,355.1719 Q90.5297,353.0391 90.0375,352.6875 Q89.5219,352.2891 87.5766,352.2891 L83.9906,352.2891 Q83.4281,352.1719 83.475,352.2891 Q83.4281,352.1953 83.5219,352.7109 L83.5219,358.5938 L87.0844,358.5938 Q88.4672,358.5938 88.8188,358.2188 Q89.1234,357.8906 89.4047,356.0391 L90.8813,356.0391 L90.8813,363.2578 L89.4047,363.2578 Q89.1234,361.3125 88.7953,360.9844 Q88.4438,360.6563 87.0844,360.6563 L83.5219,360.6563 L83.5219,367.0547 Q83.5219,367.6172 83.8031,367.7109 Q84.3656,367.8984 87.1313,367.8984 Q89.2875,367.8984 90.225,367.2422 Q91.1625,366.5859 92.1,364.2656 L93.6469,364.2656 Z "/><text fill="#000000" font-family="sans-serif" font-size="18" lengthAdjust="spacingAndGlyphs" textLength="37.5" x="107.775" y="368.8638">LOG</text><line style="stroke: #A80036; stroke-width: 2.25;" x1="60" x2="153" y1="384" y2="384"/><text fill="#000000" font-family="sans-serif" font-size="16.5" lengthAdjust="spacingAndGlyphs" textLength="78" x="67.5" y="409.8757">VERBOSE,</text><text fill="#000000" font-family="sans-serif" font-size="16.5" lengthAdjust="spacingAndGlyphs" textLength="57" x="67.5" y="433.377">DEBUG,</text><text fill="#000000" font-family="sans-serif" font-size="16.5" lengthAdjust="spacingAndGlyphs" textLength="34.5" x="67.5" y="456.8782">INFO</text><line style="stroke: #A80036; stroke-width: 2.25;" x1="60" x2="153" y1="466.5037" y2="466.5037"/><!--class MuitiLang--><rect fill="#FEFECE" filter="url(#fwx3eeanx46ts)" height="72" id="MuitiLang" style="stroke: #A80036; stroke-width: 2.25;" width="127.5" x="207.75" y="371.25"/><ellipse cx="230.25" cy="395.25" fill="#ADD1B2" rx="16.5" ry="16.5" style="stroke: #A80036; stroke-width: 1.5;"/><path d="M236.8125,401.3906 Q236.0625,402.7031 234.7031,403.7344 Q232.4531,405.3516 229.6875,405.3516 Q226.1953,405.3516 223.8281,403.0078 Q221.1328,400.2891 221.1328,395.2969 Q221.1328,390.6797 223.8047,387.8438 Q226.2891,385.2422 229.8281,385.2422 Q231.2109,385.2422 232.7578,385.7109 Q234.1406,386.3203 234.1406,386.1328 Q234.3984,386.1328 234.6094,385.3125 L236.1563,385.1953 L236.3906,392.2266 L234.9375,392.3672 Q233.7188,387.0703 230.0391,387.0703 Q228.9609,387.0703 227.8359,387.4688 Q226.5938,387.9375 225.8906,388.6641 Q223.9688,390.8203 223.9453,395.3438 Q223.9219,399.3047 226.0781,401.5078 Q227.8594,403.3359 230.3906,403.3359 Q233.2031,403.3359 235.9453,400.125 L236.8125,401.3906 Z "/><text fill="#000000" font-family="sans-serif" font-size="18" lengthAdjust="spacingAndGlyphs" textLength="79.5" x="251.25" y="404.1138">MuitiLang</text><line style="stroke: #A80036; stroke-width: 2.25;" x1="209.25" x2="333.75" y1="419.25" y2="419.25"/><line style="stroke: #A80036; stroke-width: 2.25;" x1="209.25" x2="333.75" y1="431.25" y2="431.25"/><!--class OptionSwitch--><rect fill="#FEFECE" filter="url(#fwx3eeanx46ts)" height="72" id="OptionSwitch" style="stroke: #A80036; stroke-width: 2.25;" width="156" x="2688" y="174"/><ellipse cx="2710.5" cy="198" fill="#ADD1B2" rx="16.5" ry="16.5" style="stroke: #A80036; stroke-width: 1.5;"/><path d="M2717.0625,204.1406 Q2716.3125,205.4531 2714.9531,206.4844 Q2712.7031,208.1016 2709.9375,208.1016 Q2706.4453,208.1016 2704.0781,205.7578 Q2701.3828,203.0391 2701.3828,198.0469 Q2701.3828,193.4297 2704.0547,190.5938 Q2706.5391,187.9922 2710.0781,187.9922 Q2711.4609,187.9922 2713.0078,188.4609 Q2714.3906,189.0703 2714.3906,188.8828 Q2714.6484,188.8828 2714.8594,188.0625 L2716.4063,187.9453 L2716.6406,194.9766 L2715.1875,195.1172 Q2713.9688,189.8203 2710.2891,189.8203 Q2709.2109,189.8203 2708.0859,190.2188 Q2706.8438,190.6875 2706.1406,191.4141 Q2704.2188,193.5703 2704.1953,198.0938 Q2704.1719,202.0547 2706.3281,204.2578 Q2708.1094,206.0859 2710.6406,206.0859 Q2713.4531,206.0859 2716.1953,202.875 L2717.0625,204.1406 Z "/><text fill="#000000" font-family="sans-serif" font-size="18" lengthAdjust="spacingAndGlyphs" textLength="108" x="2731.5" y="206.8638">OptionSwitch</text><line style="stroke: #A80036; stroke-width: 2.25;" x1="2689.5" x2="2842.5" y1="222" y2="222"/><line style="stroke: #A80036; stroke-width: 2.25;" x1="2689.5" x2="2842.5" y1="234" y2="234"/><!--class Point--><rect fill="#FEFECE" filter="url(#fwx3eeanx46ts)" height="72" id="Point" style="stroke: #A80036; stroke-width: 2.25;" width="90" x="388.5" y="371.25"/><ellipse cx="411" cy="395.25" fill="#ADD1B2" rx="16.5" ry="16.5" style="stroke: #A80036; stroke-width: 1.5;"/><path d="M417.5625,401.3906 Q416.8125,402.7031 415.4531,403.7344 Q413.2031,405.3516 410.4375,405.3516 Q406.9453,405.3516 404.5781,403.0078 Q401.8828,400.2891 401.8828,395.2969 Q401.8828,390.6797 404.5547,387.8438 Q407.0391,385.2422 410.5781,385.2422 Q411.9609,385.2422 413.5078,385.7109 Q414.8906,386.3203 414.8906,386.1328 Q415.1484,386.1328 415.3594,385.3125 L416.9063,385.1953 L417.1406,392.2266 L415.6875,392.3672 Q414.4688,387.0703 410.7891,387.0703 Q409.7109,387.0703 408.5859,387.4688 Q407.3438,387.9375 406.6406,388.6641 Q404.7188,390.8203 404.6953,395.3438 Q404.6719,399.3047 406.8281,401.5078 Q408.6094,403.3359 411.1406,403.3359 Q413.9531,403.3359 416.6953,400.125 L417.5625,401.3906 Z "/><text fill="#000000" font-family="sans-serif" font-size="18" lengthAdjust="spacingAndGlyphs" textLength="42" x="432" y="404.1138">Point</text><line style="stroke: #A80036; stroke-width: 2.25;" x1="390" x2="477" y1="419.25" y2="419.25"/><line style="stroke: #A80036; stroke-width: 2.25;" x1="390" x2="477" y1="431.25" y2="431.25"/><!--class Polygon--><rect fill="#FEFECE" filter="url(#fwx3eeanx46ts)" height="72" id="Polygon" style="stroke: #A80036; stroke-width: 2.25;" width="114" x="531" y="371.25"/><ellipse cx="553.5" cy="395.25" fill="#ADD1B2" rx="16.5" ry="16.5" style="stroke: #A80036; stroke-width: 1.5;"/><path d="M560.0625,401.3906 Q559.3125,402.7031 557.9531,403.7344 Q555.7031,405.3516 552.9375,405.3516 Q549.4453,405.3516 547.0781,403.0078 Q544.3828,400.2891 544.3828,395.2969 Q544.3828,390.6797 547.0547,387.8438 Q549.5391,385.2422 553.0781,385.2422 Q554.4609,385.2422 556.0078,385.7109 Q557.3906,386.3203 557.3906,386.1328 Q557.6484,386.1328 557.8594,385.3125 L559.4063,385.1953 L559.6406,392.2266 L558.1875,392.3672 Q556.9688,387.0703 553.2891,387.0703 Q552.2109,387.0703 551.0859,387.4688 Q549.8438,387.9375 549.1406,388.6641 Q547.2188,390.8203 547.1953,395.3438 Q547.1719,399.3047 549.3281,401.5078 Q551.1094,403.3359 553.6406,403.3359 Q556.4531,403.3359 559.1953,400.125 L560.0625,401.3906 Z "/><text fill="#000000" font-family="sans-serif" font-size="18" lengthAdjust="spacingAndGlyphs" textLength="66" x="574.5" y="404.1138">Polygon</text><line style="stroke: #A80036; stroke-width: 2.25;" x1="532.5" x2="643.5" y1="419.25" y2="419.25"/><line style="stroke: #A80036; stroke-width: 2.25;" x1="532.5" x2="643.5" y1="431.25" y2="431.25"/><!--class Slider--><rect fill="#FEFECE" filter="url(#fwx3eeanx46ts)" height="72" id="Slider" style="stroke: #A80036; stroke-width: 2.25;" width="96" x="2404.5" y="371.25"/><ellipse cx="2427" cy="395.25" fill="#ADD1B2" rx="16.5" ry="16.5" style="stroke: #A80036; stroke-width: 1.5;"/><path d="M2433.5625,401.3906 Q2432.8125,402.7031 2431.4531,403.7344 Q2429.2031,405.3516 2426.4375,405.3516 Q2422.9453,405.3516 2420.5781,403.0078 Q2417.8828,400.2891 2417.8828,395.2969 Q2417.8828,390.6797 2420.5547,387.8438 Q2423.0391,385.2422 2426.5781,385.2422 Q2427.9609,385.2422 2429.5078,385.7109 Q2430.8906,386.3203 2430.8906,386.1328 Q2431.1484,386.1328 2431.3594,385.3125 L2432.9063,385.1953 L2433.1406,392.2266 L2431.6875,392.3672 Q2430.4688,387.0703 2426.7891,387.0703 Q2425.7109,387.0703 2424.5859,387.4688 Q2423.3438,387.9375 2422.6406,388.6641 Q2420.7188,390.8203 2420.6953,395.3438 Q2420.6719,399.3047 2422.8281,401.5078 Q2424.6094,403.3359 2427.1406,403.3359 Q2429.9531,403.3359 2432.6953,400.125 L2433.5625,401.3906 Z "/><text fill="#000000" font-family="sans-serif" font-size="18" lengthAdjust="spacingAndGlyphs" textLength="48" x="2448" y="404.1138">Slider</text><line style="stroke: #A80036; stroke-width: 2.25;" x1="2406" x2="2499" y1="419.25" y2="419.25"/><line style="stroke: #A80036; stroke-width: 2.25;" x1="2406" x2="2499" y1="431.25" y2="431.25"/><!--class Sprite--><rect fill="#FEFECE" filter="url(#fwx3eeanx46ts)" height="72" id="Sprite" style="stroke: #A80036; stroke-width: 2.25;" width="96" x="3046.5" y="371.25"/><ellipse cx="3069" cy="395.25" fill="#ADD1B2" rx="16.5" ry="16.5" style="stroke: #A80036; stroke-width: 1.5;"/><path d="M3075.5625,401.3906 Q3074.8125,402.7031 3073.4531,403.7344 Q3071.2031,405.3516 3068.4375,405.3516 Q3064.9453,405.3516 3062.5781,403.0078 Q3059.8828,400.2891 3059.8828,395.2969 Q3059.8828,390.6797 3062.5547,387.8438 Q3065.0391,385.2422 3068.5781,385.2422 Q3069.9609,385.2422 3071.5078,385.7109 Q3072.8906,386.3203 3072.8906,386.1328 Q3073.1484,386.1328 3073.3594,385.3125 L3074.9063,385.1953 L3075.1406,392.2266 L3073.6875,392.3672 Q3072.4688,387.0703 3068.7891,387.0703 Q3067.7109,387.0703 3066.5859,387.4688 Q3065.3438,387.9375 3064.6406,388.6641 Q3062.7188,390.8203 3062.6953,395.3438 Q3062.6719,399.3047 3064.8281,401.5078 Q3066.6094,403.3359 3069.1406,403.3359 Q3071.9531,403.3359 3074.6953,400.125 L3075.5625,401.3906 Z "/><text fill="#000000" font-family="sans-serif" font-size="18" lengthAdjust="spacingAndGlyphs" textLength="48" x="3090" y="404.1138">Sprite</text><line style="stroke: #A80036; stroke-width: 2.25;" x1="3048" x2="3141" y1="419.25" y2="419.25"/><line style="stroke: #A80036; stroke-width: 2.25;" x1="3048" x2="3141" y1="431.25" y2="431.25"/><!--class TextButton--><rect fill="#FEFECE" filter="url(#fwx3eeanx46ts)" height="72" id="TextButton" style="stroke: #A80036; stroke-width: 2.25;" width="133.5" x="2706.75" y="371.25"/><ellipse cx="2729.25" cy="395.25" fill="#ADD1B2" rx="16.5" ry="16.5" style="stroke: #A80036; stroke-width: 1.5;"/><path d="M2735.8125,401.3906 Q2735.0625,402.7031 2733.7031,403.7344 Q2731.4531,405.3516 2728.6875,405.3516 Q2725.1953,405.3516 2722.8281,403.0078 Q2720.1328,400.2891 2720.1328,395.2969 Q2720.1328,390.6797 2722.8047,387.8438 Q2725.2891,385.2422 2728.8281,385.2422 Q2730.2109,385.2422 2731.7578,385.7109 Q2733.1406,386.3203 2733.1406,386.1328 Q2733.3984,386.1328 2733.6094,385.3125 L2735.1563,385.1953 L2735.3906,392.2266 L2733.9375,392.3672 Q2732.7188,387.0703 2729.0391,387.0703 Q2727.9609,387.0703 2726.8359,387.4688 Q2725.5938,387.9375 2724.8906,388.6641 Q2722.9688,390.8203 2722.9453,395.3438 Q2722.9219,399.3047 2725.0781,401.5078 Q2726.8594,403.3359 2729.3906,403.3359 Q2732.2031,403.3359 2734.9453,400.125 L2735.8125,401.3906 Z "/><text fill="#000000" font-family="sans-serif" font-size="18" lengthAdjust="spacingAndGlyphs" textLength="85.5" x="2750.25" y="404.1138">TextButton</text><line style="stroke: #A80036; stroke-width: 2.25;" x1="2708.25" x2="2838.75" y1="419.25" y2="419.25"/><line style="stroke: #A80036; stroke-width: 2.25;" x1="2708.25" x2="2838.75" y1="431.25" y2="431.25"/><!--class Util--><rect fill="#FEFECE" filter="url(#fwx3eeanx46ts)" height="72" id="Util" style="stroke: #A80036; stroke-width: 2.25;" width="75" x="69" y="568.5"/><ellipse cx="91.5" cy="592.5" fill="#ADD1B2" rx="16.5" ry="16.5" style="stroke: #A80036; stroke-width: 1.5;"/><path d="M98.0625,598.6406 Q97.3125,599.9531 95.9531,600.9844 Q93.7031,602.6016 90.9375,602.6016 Q87.4453,602.6016 85.0781,600.2578 Q82.3828,597.5391 82.3828,592.5469 Q82.3828,587.9297 85.0547,585.0938 Q87.5391,582.4922 91.0781,582.4922 Q92.4609,582.4922 94.0078,582.9609 Q95.3906,583.5703 95.3906,583.3828 Q95.6484,583.3828 95.8594,582.5625 L97.4063,582.4453 L97.6406,589.4766 L96.1875,589.6172 Q94.9688,584.3203 91.2891,584.3203 Q90.2109,584.3203 89.0859,584.7188 Q87.8438,585.1875 87.1406,585.9141 Q85.2188,588.0703 85.1953,592.5938 Q85.1719,596.5547 87.3281,598.7578 Q89.1094,600.5859 91.6406,600.5859 Q94.4531,600.5859 97.1953,597.375 L98.0625,598.6406 Z "/><text fill="#000000" font-family="sans-serif" font-size="18" lengthAdjust="spacingAndGlyphs" textLength="27" x="112.5" y="601.3638">Util</text><line style="stroke: #A80036; stroke-width: 2.25;" x1="70.5" x2="142.5" y1="616.5" y2="616.5"/><line style="stroke: #A80036; stroke-width: 2.25;" x1="70.5" x2="142.5" y1="628.5" y2="628.5"/><!--link IScene to MainScene--><path d="M1289.1645,84 C1264.62,104.487 1232.9535,130.917 1205.115,154.152 " fill="none" id="IScene-MainScene" style="stroke: #A80036; stroke-width: 1.5;"/><polygon fill="none" points="1211.673,162.3555,1181.913,173.517,1198.2165,146.2335,1211.673,162.3555" style="stroke: #A80036; stroke-width: 1.5;"/><!--link IScene to TitleScene--><path d="M1330.5,84 C1330.5,101.382 1330.5,123.0435 1330.5,143.4015 " fill="none" id="IScene-TitleScene" style="stroke: #A80036; stroke-width: 1.5;"/><polygon fill="none" points="1341,143.517,1330.5,173.517,1320,143.517,1341,143.517" style="stroke: #A80036; stroke-width: 1.5;"/><!--link IScene to SettingScene--><path d="M1373.7885,84 C1399.623,104.5905 1432.9905,131.184 1462.2495,154.503 " fill="none" id="IScene-SettingScene" style="stroke: #A80036; stroke-width: 1.5;"/><polygon fill="none" points="1469.1915,146.6085,1486.107,173.517,1456.1025,163.0305,1469.1915,146.6085" style="stroke: #A80036; stroke-width: 1.5;"/><!--link AudioHelper to Allegro5--><path d="M1719,114.036 C1719,123.726 1719,133.7235 1719,143.424 " fill="none" id="AudioHelper-Allegro5" style="stroke: #A80036; stroke-width: 1.5;"/><polygon fill="none" points="1729.5,143.517,1719,173.517,1708.5,143.517,1729.5,143.517" style="stroke: #A80036; stroke-width: 1.5;"/><polygon fill="none" points="1708.5,114,1719,84,1729.5,114,1708.5,114" style="stroke: #A80036; stroke-width: 1.5;"/><!--link LayoutHelper to Window--><path d="M1927.5,114.036 C1927.5,123.726 1927.5,133.7235 1927.5,143.424 " fill="none" id="LayoutHelper-Window" style="stroke: #A80036; stroke-width: 1.5;"/><polygon fill="none" points="1938,143.517,1927.5,173.517,1917,143.517,1938,143.517" style="stroke: #A80036; stroke-width: 1.5;"/><polygon fill="none" points="1917,114,1927.5,84,1938,114,1917,114" style="stroke: #A80036; stroke-width: 1.5;"/><!--link FileHelper to Files--><path d="M2127,114.036 C2127,123.726 2127,133.7235 2127,143.424 " fill="none" id="FileHelper-Files" style="stroke: #A80036; stroke-width: 1.5;"/><polygon fill="none" points="2137.5,143.517,2127,173.517,2116.5,143.517,2137.5,143.517" style="stroke: #A80036; stroke-width: 1.5;"/><polygon fill="none" points="2116.5,114,2127,84,2137.5,114,2116.5,114" style="stroke: #A80036; stroke-width: 1.5;"/><!--link MainScene to SelfBulletManager--><path d="M1052.865,260.775 C1001.1375,290.0265 935.7585,326.9985 883.971,356.2845 " fill="none" id="MainScene-SelfBulletManager" style="stroke: #A80036; stroke-width: 1.5;"/><polygon fill="none" points="888.807,365.613,857.5245,371.241,878.469,347.334,888.807,365.613" style="stroke: #A80036; stroke-width: 1.5;"/><polygon fill="none" points="1047.702,251.6325,1078.9845,246.0045,1058.04,269.9115,1047.702,251.6325" style="stroke: #A80036; stroke-width: 1.5;"/><!--link SelfBulletManager to SelfBullet--><path d="M796.5,473.778 C796.5,494.4195 796.5,517.239 796.5,537.8865 " fill="none" id="SelfBulletManager-SelfBullet" style="stroke: #A80036; stroke-width: 1.5;"/><polygon fill="none" points="807,537.918,796.5,567.918,786,537.918,807,537.918" style="stroke: #A80036; stroke-width: 1.5;"/><polygon fill="none" points="786,473.478,796.5,443.478,807,473.478,786,473.478" style="stroke: #A80036; stroke-width: 1.5;"/><!--link MainScene to Itemmanager--><path d="M1105.095,272.583 C1092.0435,295.4235 1077.2205,321.363 1064.148,344.2425 " fill="none" id="MainScene-Itemmanager" style="stroke: #A80036; stroke-width: 1.5;"/><polygon fill="none" points="1073.0475,349.83,1049.0475,370.668,1054.815,339.411,1073.0475,349.83" style="stroke: #A80036; stroke-width: 1.5;"/><polygon fill="none" points="1096.155,267.066,1120.155,246.228,1114.3875,277.485,1096.155,267.066" style="stroke: #A80036; stroke-width: 1.5;"/><!--link Itemmanager to Item--><path d="M1029,473.778 C1029,494.4195 1029,517.239 1029,537.8865 " fill="none" id="Itemmanager-Item" style="stroke: #A80036; stroke-width: 1.5;"/><polygon fill="none" points="1039.5,537.918,1029,567.918,1018.5,537.918,1039.5,537.918" style="stroke: #A80036; stroke-width: 1.5;"/><polygon fill="none" points="1018.5,473.478,1029,443.478,1039.5,473.478,1018.5,473.478" style="stroke: #A80036; stroke-width: 1.5;"/><!--link MainScene to EnemyManager--><path d="M1174.905,272.583 C1187.9565,295.4235 1202.7795,321.363 1215.852,344.2425 " fill="none" id="MainScene-EnemyManager" style="stroke: #A80036; stroke-width: 1.5;"/><polygon fill="none" points="1225.185,339.411,1230.9525,370.668,1206.9525,349.83,1225.185,339.411" style="stroke: #A80036; stroke-width: 1.5;"/><polygon fill="none" points="1165.6125,277.485,1159.845,246.228,1183.845,267.066,1165.6125,277.485" style="stroke: #A80036; stroke-width: 1.5;"/><!--link EnemyManager to Enemy--><path d="M1251,473.778 C1251,494.4195 1251,517.239 1251,537.8865 " fill="none" id="EnemyManager-Enemy" style="stroke: #A80036; stroke-width: 1.5;"/><polygon fill="none" points="1261.5,537.918,1251,567.918,1240.5,537.918,1261.5,537.918" style="stroke: #A80036; stroke-width: 1.5;"/><polygon fill="none" points="1240.5,473.478,1251,443.478,1261.5,473.478,1240.5,473.478" style="stroke: #A80036; stroke-width: 1.5;"/><!--link MainScene to BulletManager--><path d="M1232.1525,260.4045 C1273.5705,282.8325 1322.8485,310.137 1366.5,336 C1376.535,341.946 1386.987,348.3375 1397.2785,354.753 " fill="none" id="MainScene-BulletManager" style="stroke: #A80036; stroke-width: 1.5;"/><polygon fill="none" points="1403.2185,346.086,1422.9615,370.995,1391.994,363.834,1403.2185,346.086" style="stroke: #A80036; stroke-width: 1.5;"/><polygon fill="none" points="1226.9925,269.553,1205.5545,246.087,1236.948,251.0625,1226.9925,269.553" style="stroke: #A80036; stroke-width: 1.5;"/><!--link BulletManager to Bullet--><path d="M1476,473.778 C1476,494.4195 1476,517.239 1476,537.8865 " fill="none" id="BulletManager-Bullet" style="stroke: #A80036; stroke-width: 1.5;"/><polygon fill="none" points="1486.5,537.918,1476,567.918,1465.5,537.918,1486.5,537.918" style="stroke: #A80036; stroke-width: 1.5;"/><polygon fill="none" points="1465.5,473.478,1476,443.478,1486.5,473.478,1465.5,473.478" style="stroke: #A80036; stroke-width: 1.5;"/><!--link Enemy to Boss--><path d="M1251,640.5 C1251,657.8828 1251,679.5441 1251,699.9019 " fill="none" id="Enemy-Boss" style="stroke: #A80036; stroke-width: 1.5;"/><polygon fill="none" points="1261.5,700.0178,1251,730.0176,1240.5,700.0176,1261.5,700.0178" style="stroke: #A80036; stroke-width: 1.5;"/><!--link IControl to Group--><path d="M2472.495,84 C2436.525,106.56 2389.065,136.3275 2349.57,161.0985 " fill="none" id="IControl-Group" style="stroke: #A80036; stroke-width: 1.5;"/><polygon fill="none" points="2354.73,170.2545,2323.74,177.3,2343.585,152.4645,2354.73,170.2545" style="stroke: #A80036; stroke-width: 1.5;"/><!--link IObject to Group--><path d="M2713.2,62.7 C2638.2,81.99 2496.21,120.4815 2351.985,173.814 " fill="none" id="IObject-Group" style="stroke: #A80036; stroke-width: 1.5;"/><polygon fill="none" points="2355.39,183.753,2323.605,184.4925,2347.995,164.0985,2355.39,183.753" style="stroke: #A80036; stroke-width: 1.5;"/><!--link IObject to Image--><path d="M2818.785,75.0465 C2872.32,100.9635 2955.795,141.3675 3016.875,170.931 " fill="none" id="IObject-Image" style="stroke: #A80036; stroke-width: 1.5;"/><polygon fill="none" points="3021.585,161.541,3044.01,184.062,3012.435,180.4425,3021.585,161.541" style="stroke: #A80036; stroke-width: 1.5;"/><!--link IObject to ImageButton--><path d="M2712.825,76.4715 C2667.75,99.333 2601.99,132.684 2547.84,160.1445 " fill="none" id="IObject-ImageButton" style="stroke: #A80036; stroke-width: 1.5;"/><polygon fill="none" points="2552.265,169.6755,2520.75,173.8815,2542.77,150.9465,2552.265,169.6755" style="stroke: #A80036; stroke-width: 1.5;"/><!--link IControl to ImageButton--><path d="M2511.225,84 C2502.63,102.21 2491.83,125.1165 2481.84,146.301 " fill="none" id="IControl-ImageButton" style="stroke: #A80036; stroke-width: 1.5;"/><polygon fill="none" points="2491.29,150.864,2469,173.517,2472.3,141.9045,2491.29,150.864" style="stroke: #A80036; stroke-width: 1.5;"/><!--link IObject to Label--><path d="M2804.73,84 C2827.5,104.28 2856.81,130.383 2882.7,153.447 " fill="none" id="IObject-Label" style="stroke: #A80036; stroke-width: 1.5;"/><polygon fill="none" points="2889.81,145.7235,2905.23,173.517,2875.845,161.4045,2889.81,145.7235" style="stroke: #A80036; stroke-width: 1.5;"/><!--link IObject to OptionSwitch--><path d="M2766,84 C2766,101.382 2766,123.0435 2766,143.4015 " fill="none" id="IObject-OptionSwitch" style="stroke: #A80036; stroke-width: 1.5;"/><polygon fill="none" points="2776.5,143.517,2766,173.517,2755.5,143.517,2776.5,143.517" style="stroke: #A80036; stroke-width: 1.5;"/><!--link IControl to OptionSwitch--><path d="M2579.25,84 C2611.17,105.2835 2652.72,132.984 2688.525,156.849 " fill="none" id="IControl-OptionSwitch" style="stroke: #A80036; stroke-width: 1.5;"/><polygon fill="none" points="2694.795,148.4145,2713.935,173.793,2683.155,165.888,2694.795,148.4145" style="stroke: #A80036; stroke-width: 1.5;"/><!--link ImageButton to Slider--><path d="M2452.5,246.228 C2452.5,272.307 2452.5,308.796 2452.5,340.2945 " fill="none" id="ImageButton-Slider" style="stroke: #A80036; stroke-width: 1.5;"/><polygon fill="none" points="2463,340.668,2452.5,370.668,2442,340.668,2463,340.668" style="stroke: #A80036; stroke-width: 1.5;"/><!--link Image to Sprite--><path d="M3094.5,246.228 C3094.5,272.307 3094.5,308.796 3094.5,340.2945 " fill="none" id="Image-Sprite" style="stroke: #A80036; stroke-width: 1.5;"/><polygon fill="none" points="3105,340.668,3094.5,370.668,3084,340.668,3105,340.668" style="stroke: #A80036; stroke-width: 1.5;"/><!--link Label to TextButton--><path d="M2913.93,246.228 C2889.03,274.5045 2853.375,315.015 2824.215,348.1365 " fill="none" id="Label-TextButton" style="stroke: #A80036; stroke-width: 1.5;"/><polygon fill="none" points="2832.09,355.0875,2804.385,370.668,2816.325,341.211,2832.09,355.0875" style="stroke: #A80036; stroke-width: 1.5;"/><!--link IControl to TextButton--><path d="M2550.96,84.4065 C2577.48,123.7875 2622.045,189.6945 2661,246 C2684.025,279.276 2710.005,316.2225 2731.2,346.197 " fill="none" id="IControl-TextButton" style="stroke: #A80036; stroke-width: 1.5;"/><polygon fill="none" points="2739.975,340.416,2748.75,370.965,2722.845,352.5555,2739.975,340.416" style="stroke: #A80036; stroke-width: 1.5;"/><!--link Allegro5Exception to Resources--><!--link Resources to GameEngine--><!--link GameEngine to Animation--><!--link Allegro5Exception to Collider--><!--link Collider to Fighter--><!--link Fighter to Flag--><!--link Flag to Fragment--><!--link Collider to LOG--><!--link LOG to MuitiLang--><!--link MuitiLang to Point--><!--link Point to Polygon--><!--link LOG to Util--><!--
@startuml
class Allegro5Exception
class Resources
class GameEngine

class IScene
class MainScene
IScene - -|> MainScene
class TitleScene
IScene - -|> TitleScene
class SettingScene
IScene - -|> SettingScene

interface AudioHelper
AudioHelper <|- -|> Allegro5

interface LayoutHelper
LayoutHelper <|- -|> Window

interface FileHelper
FileHelper <|- -|> Files

class IControl
class IObject

interface SelfBulletManager
MainScene <|- -|> SelfBulletManager
SelfBulletManager <|- -|> SelfBullet

interface Itemmanager
MainScene <|- -|> Itemmanager
Itemmanager <|- -|> Item

interface EnemyManager
MainScene <|- -|> EnemyManager
EnemyManager <|- -|> Enemy

interface BulletManager
MainScene <|- -|> BulletManager
BulletManager <|- -|> Bullet

class Animation

class Boss
Enemy - -|> Boss

class Bullet

class Collider
class Enemy

class Fighter

class Flag
class Fragment

class Group
IControl - -|> Group
IObject - -|> Group

class Image
IObject - -|> Image

class ImageButton
IObject - -|> ImageButton
IControl - -|> ImageButton

class Item

class Label
IObject - -|> Label


enum LOG{
   VERBOSE,
   DEBUG,
   INFO
}


class MuitiLang

class OptionSwitch
IObject - -|> OptionSwitch
IControl - -|> OptionSwitch

class Point
class Polygon

class SelfBullet

class Slider
ImageButton - -|> Slider

class Sprite
Image - -|> Sprite

class TextButton
Label - -|> TextButton
IControl - -|> TextButton

class Util

@enduml

PlantUML version 1.2019.05(Sun Apr 21 00:45:36 CST 2019)
(GPL source distribution)
Java Runtime: OpenJDK Runtime Environment
JVM: OpenJDK 64-Bit Server VM
Java Version: 1.8.0_202-release-1483-b53
Operating System: Windows 10
OS Version: 10.0
Default Encoding: MS950
Language: zh
Country: TW
--></g></svg>